<svg width="100%" viewBox="0 0 33 32" fill="none" xmlns="http://www.w3.org/2000/svg"><rect x="0.666748" width="32" height="32" rx="8" fill="#1B2C7D"></rect><rect x="0.666748" width="32" height="32" rx="8" fill="url(#paint0_radial_9721_20)" fill-opacity="0.6"></rect><rect x="0.666748" width="32" height="32" rx="8" fill="url(#paint1_radial_9721_20)" fill-opacity="0.4"></rect><text x="50%" y="9" dominant-baseline="middle" text-anchor="middle" fill="#FFFFFF" style="font-size: 7px; font-family: &quot;Gill Sans&quot;; font-stretch: condensed; text-align: center;">SAMPL</text><g opacity="0.6" color="#FFFFFF" fill="#FFFFFF"><svg xmlns="http://www.w3.org/2000/svg" xmlns:xlink="http://www.w3.org/1999/xlink" aria-hidden="true" role="img" class="iconify iconify--logos" width="50%" height="50%" preserveAspectRatio="xMidYMid meet" viewBox="0 0 256 257" x="8" y="12"><defs><linearGradient id="IconifyId1813088fe1fbc01fb466" x1="-.828%" x2="57.636%" y1="7.652%" y2="78.411%"><stop offset="0%" stop-color="#41D1FF"></stop><stop offset="100%" stop-color="#BD34FE"></stop></linearGradient><linearGradient id="IconifyId1813088fe1fbc01fb467" x1="43.376%" x2="50.316%" y1="2.242%" y2="89.03%"><stop offset="0%" stop-color="#FFEA83"></stop><stop offset="8.333%" stop-color="#FFDD35"></stop><stop offset="100%" stop-color="#FFA800"></stop></linearGradient></defs><path fill="url(#IconifyId1813088fe1fbc01fb466)" d="M255.153 37.938L134.897 252.976c-2.483 4.44-8.862 4.466-11.382.048L.875 37.958c-2.746-4.814 1.371-10.646 6.827-9.67l120.385 21.517a6.537 6.537 0 0 0 2.322-.004l117.867-21.483c5.438-.991 9.574 4.796 6.877 9.62Z"></path><path fill="url(#IconifyId1813088fe1fbc01fb467)" d="M185.432.063L96.44 17.501a3.268 3.268 0 0 0-2.634 3.014l-5.474 92.456a3.268 3.268 0 0 0 3.997 3.378l24.777-5.718c2.318-.535 4.413 1.507 3.936 3.838l-7.361 36.047c-.495 2.426 1.782 4.5 4.151 3.78l15.304-4.649c2.372-.72 4.652 1.36 4.15 3.788l-11.698 56.621c-.732 3.542 3.979 5.473 5.943 2.437l1.313-2.028l72.516-144.72c1.215-2.423-.88-5.186-3.54-4.672l-25.505 4.922c-2.396.462-4.435-1.77-3.759-4.114l16.646-57.705c.677-2.35-1.37-4.583-3.769-4.113Z"></path></svg></g><defs><radialGradient id="paint0_radial_9721_20" cx="0" cy="0" r="1" gradientUnits="userSpaceOnUse" gradientTransform="translate(0.666748) rotate(45) scale(45.2548)"><stop stop-color="white"></stop><stop offset="0.374605" stop-color="white" stop-opacity="0"></stop></radialGradient><radialGradient id="paint1_radial_9721_20" cx="0" cy="0" r="1" gradientUnits="userSpaceOnUse" gradientTransform="translate(0.666748) rotate(45) scale(45.2548)"><stop offset="0.668226" stop-opacity="0"></stop><stop offset="1"></stop></radialGradient></defs></svg>