<svg width="32" height="32" fill="none" xmlns="http://www.w3.org/2000/svg"><g clip-path="url(#prefix__clip0_236_3337)"><path d="M4.382 1.148c0 .634-.51 1.148-1.138 1.148a1.143 1.143 0 01-1.137-1.148C2.107.514 2.617 0 3.244 0c.629 0 1.138.514 1.138 1.148z" fill="url(#prefix__paint0_linear_236_3337)"/><path d="M7.227 1.148c0 .634-.51 1.148-1.138 1.148A1.143 1.143 0 014.95 1.148C4.951.514 5.461 0 6.09 0c.628 0 1.138.514 1.138 1.148z" fill="url(#prefix__paint1_linear_236_3337)"/><path d="M10.071 1.148c0 .634-.51 1.148-1.138 1.148a1.143 1.143 0 01-1.137-1.148C7.796.514 8.305 0 8.933 0c.629 0 1.138.514 1.138 1.148z" fill="url(#prefix__paint2_linear_236_3337)"/><path d="M12.916 1.148c0 .634-.51 1.148-1.138 1.148a1.143 1.143 0 01-1.138-1.148C10.64.514 11.15 0 11.778 0c.628 0 1.138.514 1.138 1.148z" fill="url(#prefix__paint3_linear_236_3337)"/><path d="M15.76 1.148c0 .634-.51 1.148-1.138 1.148a1.143 1.143 0 01-1.137-1.148c0-.634.509-1.148 1.137-1.148.629 0 1.138.514 1.138 1.148z" fill="url(#prefix__paint4_linear_236_3337)"/><path d="M7.227 4.018c0 .634-.51 1.148-1.138 1.148A1.143 1.143 0 014.95 4.018c0-.634.51-1.148 1.138-1.148.628 0 1.138.514 1.138 1.148z" fill="url(#prefix__paint5_linear_236_3337)"/><path d="M10.071 4.018c0 .634-.51 1.148-1.138 1.148a1.143 1.143 0 01-1.137-1.148c0-.634.509-1.148 1.137-1.148.629 0 1.138.514 1.138 1.148z" fill="url(#prefix__paint6_linear_236_3337)"/><path d="M12.916 4.018c0 .634-.51 1.148-1.138 1.148a1.143 1.143 0 01-1.138-1.148c0-.634.51-1.148 1.138-1.148.628 0 1.138.514 1.138 1.148z" fill="url(#prefix__paint7_linear_236_3337)"/><path d="M15.76 4.018c0 .634-.51 1.148-1.138 1.148a1.143 1.143 0 01-1.137-1.148c0-.634.509-1.148 1.137-1.148.629 0 1.138.514 1.138 1.148z" fill="url(#prefix__paint8_linear_236_3337)"/><path d="M18.605 4.018c0 .634-.51 1.148-1.138 1.148a1.143 1.143 0 01-1.138-1.148c0-.634.51-1.148 1.138-1.148.628 0 1.138.514 1.138 1.148z" fill="url(#prefix__paint9_linear_236_3337)"/><path d="M10.071 6.888c0 .634-.51 1.148-1.138 1.148a1.143 1.143 0 01-1.137-1.148c0-.634.509-1.148 1.137-1.148.629 0 1.138.514 1.138 1.148z" fill="url(#prefix__paint10_linear_236_3337)"/><path d="M12.916 6.888c0 .634-.51 1.148-1.138 1.148a1.143 1.143 0 01-1.138-1.148c0-.634.51-1.148 1.138-1.148.628 0 1.138.514 1.138 1.148z" fill="url(#prefix__paint11_linear_236_3337)"/><path d="M15.76 6.888c0 .634-.51 1.148-1.138 1.148a1.143 1.143 0 01-1.137-1.148c0-.634.509-1.148 1.137-1.148.629 0 1.138.514 1.138 1.148z" fill="url(#prefix__paint12_linear_236_3337)"/><path d="M18.605 6.888c0 .634-.51 1.148-1.138 1.148a1.143 1.143 0 01-1.138-1.148c0-.634.51-1.148 1.138-1.148.628 0 1.138.514 1.138 1.148z" fill="url(#prefix__paint13_linear_236_3337)"/><path d="M21.449 6.888c0 .634-.51 1.148-1.138 1.148a1.143 1.143 0 01-1.138-1.148c0-.634.51-1.148 1.138-1.148.628 0 1.138.514 1.138 1.148z" fill="url(#prefix__paint14_linear_236_3337)"/><path d="M12.916 9.758c0 .634-.51 1.148-1.138 1.148a1.143 1.143 0 01-1.138-1.148c0-.634.51-1.148 1.138-1.148.628 0 1.138.514 1.138 1.148z" fill="url(#prefix__paint15_linear_236_3337)"/><path d="M15.76 9.758c0 .634-.51 1.148-1.138 1.148a1.143 1.143 0 01-1.137-1.148c0-.634.509-1.148 1.137-1.148.629 0 1.138.514 1.138 1.148z" fill="url(#prefix__paint16_linear_236_3337)"/><path d="M18.605 9.758c0 .634-.51 1.148-1.138 1.148a1.143 1.143 0 01-1.138-1.148c0-.634.51-1.148 1.138-1.148.628 0 1.138.514 1.138 1.148z" fill="url(#prefix__paint17_linear_236_3337)"/><path d="M21.449 9.758c0 .634-.51 1.148-1.138 1.148a1.143 1.143 0 01-1.138-1.148c0-.634.51-1.148 1.138-1.148.628 0 1.138.514 1.138 1.148z" fill="url(#prefix__paint18_linear_236_3337)"/><path d="M15.76 12.628c0 .634-.51 1.148-1.138 1.148a1.143 1.143 0 01-1.137-1.148c0-.634.509-1.148 1.137-1.148.629 0 1.138.514 1.138 1.148z" fill="url(#prefix__paint19_linear_236_3337)"/><path d="M18.605 12.628c0 .634-.51 1.148-1.138 1.148a1.143 1.143 0 01-1.138-1.148c0-.634.51-1.148 1.138-1.148.628 0 1.138.514 1.138 1.148z" fill="url(#prefix__paint20_linear_236_3337)"/><path d="M21.064 6.023s.556 4.567-3.882 9.044L2.342 30.04c-.716.723-.209 1.96.805 1.96h12.186L27.5 19.724c2-2.017 2-5.288 0-7.305l-6.436-6.396z" fill="url(#prefix__paint21_linear_236_3337)"/></g><defs><linearGradient id="prefix__paint0_linear_236_3337" x1="21.733" y1="14.78" x2="5.68" y2="7.082" gradientUnits="userSpaceOnUse"><stop stop-color="#2CC3F9"/><stop offset="1" stop-color="#3002B1"/></linearGradient><linearGradient id="prefix__paint1_linear_236_3337" x1="21.733" y1="14.78" x2="5.68" y2="7.082" gradientUnits="userSpaceOnUse"><stop stop-color="#2CC3F9"/><stop offset="1" stop-color="#3002B1"/></linearGradient><linearGradient id="prefix__paint2_linear_236_3337" x1="21.733" y1="14.78" x2="5.68" y2="7.082" gradientUnits="userSpaceOnUse"><stop stop-color="#2CC3F9"/><stop offset="1" stop-color="#3002B1"/></linearGradient><linearGradient id="prefix__paint3_linear_236_3337" x1="21.733" y1="14.78" x2="5.68" y2="7.082" gradientUnits="userSpaceOnUse"><stop stop-color="#2CC3F9"/><stop offset="1" stop-color="#3002B1"/></linearGradient><linearGradient id="prefix__paint4_linear_236_3337" x1="21.733" y1="14.78" x2="5.68" y2="7.082" gradientUnits="userSpaceOnUse"><stop stop-color="#2CC3F9"/><stop offset="1" stop-color="#3002B1"/></linearGradient><linearGradient id="prefix__paint5_linear_236_3337" x1="21.733" y1="14.78" x2="5.68" y2="7.082" gradientUnits="userSpaceOnUse"><stop stop-color="#2CC3F9"/><stop offset="1" stop-color="#3002B1"/></linearGradient><linearGradient id="prefix__paint6_linear_236_3337" x1="21.733" y1="14.78" x2="5.68" y2="7.082" gradientUnits="userSpaceOnUse"><stop stop-color="#2CC3F9"/><stop offset="1" stop-color="#3002B1"/></linearGradient><linearGradient id="prefix__paint7_linear_236_3337" x1="21.733" y1="14.78" x2="5.68" y2="7.082" gradientUnits="userSpaceOnUse"><stop stop-color="#2CC3F9"/><stop offset="1" stop-color="#3002B1"/></linearGradient><linearGradient id="prefix__paint8_linear_236_3337" x1="21.733" y1="14.78" x2="5.68" y2="7.082" gradientUnits="userSpaceOnUse"><stop stop-color="#2CC3F9"/><stop offset="1" stop-color="#3002B1"/></linearGradient><linearGradient id="prefix__paint9_linear_236_3337" x1="21.733" y1="14.78" x2="5.68" y2="7.082" gradientUnits="userSpaceOnUse"><stop stop-color="#2CC3F9"/><stop offset="1" stop-color="#3002B1"/></linearGradient><linearGradient id="prefix__paint10_linear_236_3337" x1="21.733" y1="14.78" x2="5.68" y2="7.082" gradientUnits="userSpaceOnUse"><stop stop-color="#2CC3F9"/><stop offset="1" stop-color="#3002B1"/></linearGradient><linearGradient id="prefix__paint11_linear_236_3337" x1="21.733" y1="14.78" x2="5.68" y2="7.082" gradientUnits="userSpaceOnUse"><stop stop-color="#2CC3F9"/><stop offset="1" stop-color="#3002B1"/></linearGradient><linearGradient id="prefix__paint12_linear_236_3337" x1="21.733" y1="14.78" x2="5.68" y2="7.082" gradientUnits="userSpaceOnUse"><stop stop-color="#2CC3F9"/><stop offset="1" stop-color="#3002B1"/></linearGradient><linearGradient id="prefix__paint13_linear_236_3337" x1="21.733" y1="14.78" x2="5.68" y2="7.082" gradientUnits="userSpaceOnUse"><stop stop-color="#2CC3F9"/><stop offset="1" stop-color="#3002B1"/></linearGradient><linearGradient id="prefix__paint14_linear_236_3337" x1="21.733" y1="14.78" x2="5.68" y2="7.082" gradientUnits="userSpaceOnUse"><stop stop-color="#2CC3F9"/><stop offset="1" stop-color="#3002B1"/></linearGradient><linearGradient id="prefix__paint15_linear_236_3337" x1="21.733" y1="14.78" x2="5.68" y2="7.082" gradientUnits="userSpaceOnUse"><stop stop-color="#2CC3F9"/><stop offset="1" stop-color="#3002B1"/></linearGradient><linearGradient id="prefix__paint16_linear_236_3337" x1="21.733" y1="14.78" x2="5.68" y2="7.082" gradientUnits="userSpaceOnUse"><stop stop-color="#2CC3F9"/><stop offset="1" stop-color="#3002B1"/></linearGradient><linearGradient id="prefix__paint17_linear_236_3337" x1="21.733" y1="14.78" x2="5.68" y2="7.082" gradientUnits="userSpaceOnUse"><stop stop-color="#2CC3F9"/><stop offset="1" stop-color="#3002B1"/></linearGradient><linearGradient id="prefix__paint18_linear_236_3337" x1="21.733" y1="14.78" x2="5.68" y2="7.082" gradientUnits="userSpaceOnUse"><stop stop-color="#2CC3F9"/><stop offset="1" stop-color="#3002B1"/></linearGradient><linearGradient id="prefix__paint19_linear_236_3337" x1="21.733" y1="14.78" x2="5.68" y2="7.082" gradientUnits="userSpaceOnUse"><stop stop-color="#2CC3F9"/><stop offset="1" stop-color="#3002B1"/></linearGradient><linearGradient id="prefix__paint20_linear_236_3337" x1="21.733" y1="14.78" x2="5.68" y2="7.082" gradientUnits="userSpaceOnUse"><stop stop-color="#2CC3F9"/><stop offset="1" stop-color="#3002B1"/></linearGradient><linearGradient id="prefix__paint21_linear_236_3337" x1="9.076" y1="32.143" x2="26.185" y2="10.911" gradientUnits="userSpaceOnUse"><stop stop-color="#2CC3F9"/><stop offset="1" stop-color="#3002B1"/></linearGradient><clipPath id="prefix__clip0_236_3337"><path fill="#fff" d="M0 0h32v32H0z"/></clipPath></defs></svg>
